<?xml version="1.0" encoding="UTF-8" standalone="no"?>
<svg
   xmlns:dc="http://purl.org/dc/elements/1.1/"
   xmlns:cc="http://creativecommons.org/ns#"
   xmlns:rdf="http://www.w3.org/1999/02/22-rdf-syntax-ns#"
   xmlns:svg="http://www.w3.org/2000/svg"
   xmlns="http://www.w3.org/2000/svg"
   xmlns:sodipodi="http://sodipodi.sourceforge.net/DTD/sodipodi-0.dtd"
   xmlns:inkscape="http://www.inkscape.org/namespaces/inkscape"
   width="210mm"
   height="297mm"
   viewBox="0 0 210 297"
   version="1.1"
   id="svg909"
   inkscape:version="1.0 (4035a4fb49, 2020-05-01)"
   sodipodi:docname="comet_logo_icon_dark.svg">
  <defs
     id="defs903" />
  <sodipodi:namedview
     id="base"
     pagecolor="#ffffff"
     bordercolor="#666666"
     borderopacity="1.0"
     inkscape:pageopacity="0.0"
     inkscape:pageshadow="2"
     inkscape:zoom="1"
     inkscape:cx="381.45768"
     inkscape:cy="567.45363"
     inkscape:document-units="mm"
     inkscape:current-layer="layer1"
     inkscape:document-rotation="0"
     showgrid="false"
     showborder="false"
     inkscape:snap-global="false"
     inkscape:window-width="2880"
     inkscape:window-height="1526"
     inkscape:window-x="-11"
     inkscape:window-y="-11"
     inkscape:window-maximized="1" />
  <metadata
     id="metadata906">
    <rdf:RDF>
      <cc:Work
         rdf:about="">
        <dc:format>image/svg+xml</dc:format>
        <dc:type
           rdf:resource="http://purl.org/dc/dcmitype/StillImage" />
        <dc:title></dc:title>
      </cc:Work>
    </rdf:RDF>
  </metadata>
  <g
     inkscape:label="Layer 1"
     inkscape:groupmode="layer"
     id="layer1">
    <path
       d="m 32.050888,77.484205 c 12.132542,10.971266 28.752377,25.539185 36.459706,42.422815 -6.320726,-2.5454 -14.213189,-6.72113 -19.276598,-11.11273 14.826235,13.19205 23.074914,27.32181 45.463881,45.16844 -6.34117,-2.70599 -8.283108,-0.92694 -16.714534,-7.1901 21.68775,26.94003 56.421287,53.47268 79.795467,23.90485 24.42618,-32.74969 -17.52841,-57.5157 -44.94123,-67.06113 8.96469,6.50536 6.70823,6.13088 11.21937,11.59022 C 104.25664,102.65589 85.592233,97.965207 66.632992,85.863621 72.348211,89.38571 77.640527,96.654911 81.94286,101.91077 65.036611,97.977447 47.83521,86.340069 32.050888,77.484205 Z M 155.12061,169.07771 c 67.30247,-96.952787 33.65123,-48.47641 0,0 z"
       style="fill:#0070df;fill-opacity:1;stroke-width:0.237211"
       id="path985"
       sodipodi:nodetypes="ccccccccccccc" />
    <path
       d="m 62.480781,99.444425 c 9.863602,8.919495 19.56581,19.214575 28.046543,32.613435 -5.138693,-2.06937 -14.391887,-3.24798 -20.742111,-9.63282 12.05352,10.72494 19.575419,22.83594 37.777347,37.345 -5.40911,-0.42328 -6.09272,-0.56862 -14.076445,-3.06307 15.102265,22.54528 47.752655,39.11075 66.755575,15.07252 19.85812,-26.62505 -7.61169,-49.95307 -31.47564,-56.7614 5.07532,5.9303 6.1041,9.07729 9.77161,13.51565 -16.09744,-10.20344 -34.7679,-16.19569 -50.181508,-26.0341 4.646407,2.8634 10.228923,10.96499 13.726608,15.23793 C 88.338243,114.53982 75.313217,106.64411 62.480781,99.444425 Z m 95.599809,71.034465 c 54.71599,-78.821257 27.35798,-39.41066 0,0 z"
       style="fill:#178bff;fill-opacity:1;stroke-width:0.192849"
       id="path987"
       sodipodi:nodetypes="ccccccccccccc" />
    <ellipse
       cy="157.99846"
       cx="138.17612"
       id="ellipse1542"
       style="opacity:0.999;fill:#003f7f;fill-opacity:1;stroke:none;stroke-width:0.811761;stroke-linecap:round;stroke-linejoin:round;stroke-miterlimit:4;stroke-dasharray:none"
       transform="matrix(0.99998242,-0.00592983,0.00602374,0.99998186,0,0)"
       rx="20.763815"
       ry="20.601324" />
    <path
       d="m 146.9587,170.27166 5.36964,-0.0318 m -5.49591,-20.9299 5.36964,-0.0318 m -2.55855,20.97764 -0.12629,-20.96177 m 4.48554,10.45466 a 4.5339384,4.4224654 89.549451 0 1 -4.3951,4.56009 4.5339384,4.4224654 89.549451 0 1 -4.4497,-4.50764 4.5339384,4.4224654 89.549451 0 1 4.39509,-4.56007 4.5339384,4.4224654 89.549451 0 1 4.44971,4.50762"
       style="fill:#bfdfff;fill-opacity:1;stroke:#bfdfff;stroke-width:0.971;stroke-linecap:butt;stroke-linejoin:miter;stroke-miterlimit:4;stroke-dasharray:none;stroke-opacity:1"
       id="path992" />
    <path
       id="path994"
       style="fill:#bfdfff;fill-opacity:1;stroke:#bfdfff;stroke-width:0.742;stroke-linecap:butt;stroke-linejoin:miter;stroke-miterlimit:4;stroke-dasharray:none;stroke-opacity:1"
       d="m 136.53471,156.62168 3.53945,-0.021 m -3.62269,-13.79604 3.53947,-0.021 m -1.6865,13.82755 -0.0831,-13.81707 m 2.95665,6.89124 a 2.9885733,2.9150953 89.549451 0 1 -2.89703,3.0058 2.9885733,2.9150953 89.549451 0 1 -2.93306,-2.97123 2.9885733,2.9150953 89.549451 0 1 2.89706,-3.00578 2.9885733,2.9150953 89.549451 0 1 2.93303,2.97121" />
    <path
       d="m 124.58526,158.60008 3.18209,-0.0189 m -3.25694,-12.40327 3.18212,-0.0187 m -1.51625,12.43161 -0.075,-12.42218 m 2.65817,6.19555 a 2.6868617,2.6208016 89.549451 0 1 -2.60461,2.70235 2.6868617,2.6208016 89.549451 0 1 -2.63691,-2.67128 2.6868617,2.6208016 89.549451 0 1 2.60455,-2.70236 2.6868617,2.6208016 89.549451 0 1 2.63697,2.67129"
       style="fill:#bfdfff;fill-opacity:1;stroke:#bfdfff;stroke-width:0.697;stroke-linecap:butt;stroke-linejoin:miter;stroke-miterlimit:4;stroke-dasharray:none;stroke-opacity:1"
       id="path996" />
    <path
       id="path998"
       d="m 149.58038,159.77488 -11.31757,-10.07222 -12.12393,2.6769"
       style="fill:none;stroke:#bfdfff;stroke-width:0.51;stroke-linecap:butt;stroke-linejoin:miter;stroke-opacity:1;stroke-miterlimit:4;stroke-dasharray:none" />
  </g>
</svg>
